<?xml version="1.0" encoding="UTF-8"?>
<!-- Created with Inkscape (http://www.inkscape.org/) -->
<svg width="2430" height="435.62" version="1.1" viewBox="0 0 2430 435.62" xmlns="http://www.w3.org/2000/svg">
 <g>
  <path d="m371.46 269.79c11.458 15 28.958 26.458 52.708 33.958 23.75 7.9167 48.958 11.25 75.208 11.25 16.667 0 31.667-1.25 44.792-3.9583 13.333-2.5 24.792-6.4583 34.375-12.708 9.5833-5.625 17.083-17.917 22.5-36.458 5.2083-18.542 7.9167-40 7.9167-64.583 0-20.625-1.875-41.25-5.4167-62.5-3.5417-21.042-8.75-39.583-15.833-55.833-6.875-15.833-23.333-28.958-48.75-38.958-25.417-9.7917-53.542-15-83.542-15-16.667 0-32.083 1.6667-45.208 4.7917-13.75 3.125-25.625 8.3333-36.042 15.417-10.625 7.0833-18.542 20.625-24.583 40.417-6.25 19.792-8.9583 41.25-8.9583 65 0 23.75 2.7083 46.667 7.9167 68.125 5.4167 22.083 13.333 38.75 22.917 51.042zm-0.41667-241.67c15.833-8.9583 34.792-15.833 57.5-20.833 22.5-4.7917 45.833-7.2917 70-7.2917 18.542 0 35.625 1.6667 50.625 4.375 14.792 2.5 32.083 9.1667 51.25 18.75 19.375 9.7917 34.792 27.708 46.667 53.75 11.875 25.833 18.125 55 18.125 87.083 0 10.417-0.4167 18.75-1.0417 24.583-0.4167 6.0417-1.6667 17.083-4.375 33.333-2.5 16.25-11.458 33.958-25.833 52.292-14.583 18.542-31.667 33.542-51.875 44.792-20.208 11.458-40.833 19.375-62.083 24.167-21.042 5-32.917 7.0833-36.042 6.25 38.333 16.667 71.667 30.833 100.21 41.25 28.75 11.042 51.458 16.25 68.125 16.25 7.9167 0 13.75-0.4167 18.125-2.0833 4.375-1.875 7.0833-2.7083 8.75-2.7083-7.9167 5.8333-15.417 11.458-22.292 16.667-22.917 11.458-43.542 16.875-62.083 16.875-16.25 0-36.042-5.4167-58.958-15.833-19.792-9.7917-40-19.792-61.042-30.417s-38.333-15.833-51.458-15.833c-3.5417 0-6.0417 0.4167-7.9167 0.4167 0-0.8333 0.4167-1.6667 0.8333-2.5 15-7.9167 23.333-14.583 25.625-20.417-11.042-2.5-26.042-6.875-44.792-12.292-18.958-5.2083-39.167-14.792-60.417-29.792-21.458-14.583-35-35.625-40.417-62.917-5.625-27.292-8.3333-52.292-8.3333-74.792 0-34.167 6.6667-62.292 20.625-85.208 14.167-22.5 34.792-41.667 62.5-57.917zm406.67-25.625c0.8333 0 1.25 2.7083 1.25 7.5 0 0.83333-2.0833 27.708-6.0417 81.25-3.9583 53.75-5.8333 90.625-5.8333 110.42 0 26.875 2.7083 48.333 7.9167 65 5.2083 16.667 20.208 32.083 44.792 45.417 24.792 13.542 51.042 20.208 79.167 20.208 22.5 0 41.458-4.375 56.25-13.75 15-9.1667 23.333-21.042 24.583-36.042 1.4583-14.792 2.2917-31.667 2.7083-50.833 0.4167-18.958 0.8333-37.083 0.8333-54.583 0-9.7917 0-21.042 0.4167-33.958 0-12.292 0.6249-26.25 1.4583-41.667 0-26.458-2.2917-46.667-6.25-60.625-3.9583-14.167-12.292-23.75-25-28.958-0.8333-0.62493-1.25-1.0417-1.25-1.875 0.8333 0 2.9167-0.41667 6.875-0.41667 3.5417 0 7.5 0.41667 11.875 0.41667h14.167c9.5833 0 18.958-0.41667 28.542-1.25 9.1667-0.83333 17.5-2.7083 25-5.4167 0.417 2.7083 0.833 5 1.875 6.6667 0 3.5417 0.417 10.208 0.417 19.375 0 19.792-0.833 48.333-1.875 85.208-0.833 36.875-1.25 57.708-1.25 61.25 0 21.875 0.417 43.958 1.25 66.667 1.0417 22.917 1.875 47.5 1.875 74.375 0 9.5833 2.0833 17.083 7.0833 21.875 4.7917 3.5417 9.5834 7.0833 14.792 10.625-0.417 0.8333-4.375 0.8333-11.875 0s-15.417-1.25-23.75-1.25c-7.2917 0-13.542 0.4167-18.75 0.4167-5.8333 0.4167-10.625 0.8333-15.833 0.8333-5.4167 0-7.9167-0.8333-7.9167-2.7083v-10-11.042c0-2.0833-0.4167-4.375-0.4167-6.0417 0-1.875-0.4167-2.2917-1.4583-1.875-13.125 9.5833-30.625 17.5-52.292 24.583-21.458 7.0833-43.542 10.625-65.417 10.625-39.583 0-72.083-6.6667-98.542-20.625-26.25-14.167-42.083-30.833-47.083-50.208-4.7917-19.375-7.2917-34.792-8.3333-45.208-0.8333-10.625-1.25-21.042-1.25-32.5 0-15.417 0.8333-38.75 2.7083-70 1.6667-31.25 2.5-48.333 2.5-51.458 0-19.792-2.0833-35.625-5.625-47.5-3.5417-11.875-8.75-18.75-15-21.458-6.0417-2.7083-9.1667-4.375-9.1667-5.2083 0-0.83333 2.5-1.875 8.75-2.2917 6.25 0 15-0.41667 26.875-0.41667h14.375c10.625 0 18.958 0 24.167-0.41667 5.4167-0.41667 11.042-1.25 17.708-3.125zm-681.46 31.25 0.41667 124.79h107.29 9.375 5.625c0.4167 0.4167 0 2.2917-1.25 5.4167-1.875 2.9167-3.125 6.0417-3.9583 9.1667-1.4583 3.125-3.125 8.3333-5.8333 16.25-2.5 7.9167-3.9583 11.875-4.7917 11.875-0.8333-0.8333-1.6667-3.125-2.2917-5.8333-0.4167-2.5-1.25-5.625-2.9167-9.5833-1.875-3.9583-5.4167-6.0417-11.042-6.0417h-88.333v142.29l102.92 2.2917c15.833 0 28.125-2.7083 37.292-8.75 5.2083-6.25 10.625-12.917 15.833-19.375 0.8333 0.4167 0.4167 2.0833-0.4167 5.625-0.8333 3.5417-1.875 6.6667-2.7083 9.7917l-10 37.708h-72.083c-22.083 0-41.042 0-57.292-0.4167-16.25-0.4167-34.583-1.25-55.417-2.2917l-17.5 1.0417 0.83333-23.333c0-47.5-0.41667-83.125-0.83333-107.29-0.83333-24.167-1.6667-53.125-3.125-87.083-1.25-33.333-1.6667-57.5-1.6667-71.667 0-15-3.5417-25-10.625-30.208-7.9167-2.2916-15.833-4.5833-23.75-7.0833 0-1.4583 5.4167-2.2917 15.833-2.7083 10.625 0 18.125-0.41667 22.083-0.41667h23.75c12.708 0 21.875-0.41667 27.708-1.25 5.625-0.83333 9.5833-1.875 11.25-3.125 1.875-0.83333 14.583-1.6667 39.167-1.6667h51.458 47.083v4.375c-2.2917 6.0417-4.375 12.708-6.25 19.167-3.9583 15-6.4583 24.792-7.5 29.167-1.25 4.375-2.5 6.4583-4.375 5.625-0.8333 0-1.25-2.0833-1.25-6.0417 0-3.5417-0.4167-7.0833-1.25-10.625-1.0417-3.5417-3.125-6.6667-6.6667-9.5833-3.5417-3.125-8.3333-5.4167-13.542-6.25-5.8333-0.83333-12.292-1.6667-19.375-1.6667z"/>
  <path d="m1234.8 19.583c3.9584-1.25 15-2.0833 32.5-2.5 17.708 0 33.542-1.875 46.667-5.2083 1.875-0.62493 9.1667 6.875 22.5 22.708 13.125 15.833 27.708 33.958 43.958 53.333 16.25 19.583 33.333 38.958 51.875 58.333 18.333 19.375 40 42.292 65.417 67.708 25 26.042 46.667 47.083 64.583 63.333 9.7917 7.5 19.792 15 30 21.875v-50.417-48.333c0-31.667-0.417-56.667-1.4583-76.042-0.833-19.375-2.0833-38.75-3.9583-58.542-1.6667-19.792-5.625-32.917-11.875-39.583-6.875-4.375-13.542-8.75-20.208-13.125-0.417-0.41667 0-0.83333 1.0418-1.25 0.833 0 2.0833-0.62493 4.375-0.62493 0.833 0 3.9583 0.62493 8.75 0.62493 4.7916 0.41667 8.75 0.41667 12.292 0.41667 5.2084 0 10.625 0 15.833-1.0417 5.2083-0.41667 11.042-2.0833 17.5-4.7917 0 1.875 0.417 4.375 1.0417 7.5 0 3.125 0.417 7.0833 0.417 12.292 0 12.708-0.417 26.875-1.0418 41.875-0.417 15.208-0.833 30.208-0.833 44.792 0 28.125-0.417 65-0.833 110.21-0.417 45.833-0.417 76.042-0.417 91.042 0 12.292-1.875 24.167-4.375 35.208-3.5417 10.625-5.8333 17.5-6.6667 20.625-25.417-18.333-50.625-37.292-75.625-56.25-29.375-27.708-64.583-61.875-105.83-103.33-41.458-40.833-73.958-72.5-97.292-95.417 0 20.833-0.417 41.458-0.417 61.667-0.417 20.208-0.833 39.583-0.833 57.083 0 13.125 0 28.542 0.417 45.208 0 16.875 1.4583 31.25 3.5417 43.542 1.875 12.292 5.625 19.792 11.042 22.5 5.2083 2.7084 9.5833 4.3751 13.542 5.6251 0 1.875-1.25 2.2917-4.375 2.2917-2.7083 0-7.0833 0-13.125-0.8333-6.25-1.0417-9.7916-1.4583-10.625-1.4583h-10c-3.125 0-7.0833 0.4167-12.292 1.4583-0.625-7.0833-0.625-14.583-0.625-22.083 2.2917-32.083 3.5417-68.542 3.5417-108.96v-24.583-25.208c0-30.208-1.25-54.375-3.9583-72.5-2.5-17.917-7.9167-32.5-16.25-43.542-8.75-10.833-17.5-19.167-26.667-25.417-7.0833-3.125-14.167-6.6667-21.25-10.208zm-46.042-10c-5.4167 1.6667-12.292 3.125-21.25 3.9583-8.75 1.25-18.75 1.6667-31.042 1.6667h-15.833c-7.9167 0-12.292 1.0417-12.292 1.875 3.3333 2.5 8.75 5.625 15.208 9.1667 6.25 3.5417 9.7917 12.708 9.7917 28.125v186.87c0 34.792 0 60.625 0.417 78.333 1.25 10.417 2.7083 21.042 3.5416 31.042 11.875-2.0833 23.333-3.5417 34.167-3.5417 5 0 11.458 1.0417 20.417 2.2917 9.1666 1.25 14.375 1.6667 16.25 1.6667 4.375 0 7.2916-0.8333 8.3333-2.9167-6.25 1.25-11.875-2.2917-17.708-10.208-5.625-7.9167-8.3334-22.917-8.3334-44.792zm1063.3 139.79c-10.208-12.292-20.208-24.583-30-36.875-13.125-17.708-29.792-40.417-50-69.167-20.625-28.125-31.25-42.083-31.667-42.083-5.8333 2.7083-13.125 4.375-22.5 5.625-9.5833 1.4583-22.708 1.875-40.417 1.875h-25.833c-2.7083 0-3.9583 0.41667-4.375 0.41667-0.625 0 1.25 0.41667 4.7917 1.25 3.5416 0.83333 9.5833 2.7083 19.375 6.25 9.1666 3.5417 19.167 11.458 29.792 23.333 10.625 11.875 23.75 28.542 39.583 50.417 15.833 22.083 29.375 41.458 40.833 58.125 11.042 16.667 19.792 29.375 26.458 38.542-6.6666 6.25-15.833 15-27.292 25.625-11.458 10.417-25 23.75-40.833 39.167-15.833 15.833-27.708 27.708-34.792 36.458-7.5 8.75-16.667 19.375-28.125 32.083-11.458 13.125-17.083 21.042-17.083 24.583 5.2084 0.4167 11.458 0.8333 18.333 0.8333h21.25c8.75 0 17.5 0.8333 27.083 1.875 9.375 0.8333 14.167 0.8333 14.583-0.625-4.7916-0.8333-10.625-2.5-17.5-5.2083-7.0833-2.7083-10.208-7.5-10.208-14.583 0-2.5 0.833-6.0417 3.125-10.417 2.2917-4.375 12.292-16.667 30.417-36.875 17.5-20.208 32.083-35.625 42.917-47.083 10.625-11.458 20.208-21.042 29.167-30l113.75 151.25c0.417 0.8333 2.2917 1.4583 4.7917 1.4583 1.0417 0 5.8333-0.625 14.583-1.4583 8.3333-0.8333 15.833-1.25 22.917-1.25 13.125 0 22.708 0.4167 29.792 0.4167 6.6667 0.4167 12.708 0.8333 18.542 0.8333 3.9582 0 6.0416-0.4167 6.4582-1.6667-8.75-2.7083-18.333-6.25-28.542-11.458-10.417-4.7917-19.792-13.125-27.708-24.583-8.3333-11.458-24.167-32.5-46.875-62.917-22.917-29.792-40-52.292-50.625-66.875-11.042-13.958-16.25-21.458-15.417-22.292-0.417-0.4167 15.417-15.833 47.083-46.25 31.667-30.208 57.083-55.833 76.875-76.458 19.792-20.208 30-33.333 30-38.75 0-0.41667-1.0417-0.83333-1.875-1.25-0.833 0-2.7083 0-4.375 0.83333-10.625 3.9583-26.875 6.6667-48.75 7.5-22.5 0.83333-33.542 1.875-33.542 2.7083 6.6667 1.6667 12.917 4.375 18.125 7.9167 5.2084 3.5417 7.9167 7.9167 7.9167 13.125 0 4.375-3.5417 11.042-10.208 20.625-6.4584 9.7917-22.708 28.125-48.75 55.417-13.958 13.125-27.708 26.458-41.25 39.583zm-291.88 156.88c12.292-5.625 21.875-17.917 28.125-37.292 6.0416-19.375 9.1666-41.875 9.1666-68.125 0-24.583-2.7083-48.75-7.5-72.5-5.2083-23.75-11.875-42.292-20.208-56.25-8.3333-14.167-24.583-25.208-48.75-33.542-24.167-7.9167-50.625-12.292-78.75-12.292-16.667 0-31.667 1.875-44.792 4.375-13.125 3.125-25 8.3333-35.625 15.417-10.417 7.5-18.958 21.042-25 40.833-6.25 19.792-8.75 41.458-8.75 65.208s2.5 46.458 7.9166 68.125c5.2084 21.875 13.542 39.583 24.583 53.542 11.042 14.167 28.958 25 53.542 32.917 24.583 8.3333 50.625 12.292 77.083 12.292 28.125 0 51.25-3.9583 68.958-12.708zm-277.08-59.792c-5.625-26.667-8.3334-51.458-8.3334-73.75 0-34.375 6.6667-62.5 20.833-85.417 13.958-22.292 31.042-39.375 51.25-51.25 20.417-11.458 42.292-20.208 66.042-26.458 24.167-5.625 47.917-8.75 72.083-8.75 40 0 74.375 8.3333 103.33 24.583 28.958 16.667 47.083 40.833 53.125 72.917 6.6666 32.083 10.208 58.542 10.208 78.75 0 34.167-7.5 62.917-21.667 85.625-13.958 22.917-32.5 41.042-54.375 53.75-22.083 12.708-43.125 21.458-62.917 25.833-20.208 4.7917-41.25 7.0833-63.75 7.0833-40.833 0-76.875-8.3333-108.12-25.417-31.25-16.875-50.625-42.708-57.708-77.5z"/>
 </g>
</svg>
